# xmcd
#
# Track frame offsets: 
#        150
#        14024
#        33410
#        52749
#        73169
#        94964
#        114143
#        129139
#        150592
#        171396
#        187342
#        206732
#        226925
#        244809
#        265609
#        285066
#        302444
#        321983
#
# Disc length: 4553 seconds
#
# Revision: 5
# Processed by: cddbd v1.5.2PL0 Copyright (c) Steve Scherf et al.
# Submitted via: ExactAudioCopyFreeDBPlugin 1.0
#
DISCID=f011c712
DTITLE=Nomadi - Nomadi 40 - Cd 1
DYEAR=2003
DGENRE=Pop Italiano
TTITLE0=Noi non ci saremo
TTITLE1=Gordon
TTITLE2=Tutto a posto
TTITLE3=Gli aironi neri
TTITLE4=Il vento del nord
TTITLE5=L'uomo di Monaco
TTITLE6=Il fiore nero
TTITLE7=I miei anni
TTITLE8=Un pugno di sabbia
TTITLE9=Per fare un uomo
TTITLE10=Canzone per un'amica
TTITLE11=Lontano
TTITLE12=Un giorno insieme
TTITLE13=Il vecchio e il bambino
TTITLE14=L'angelo caduto
TTITLE15=Io vagabondo
TTITLE16=Voglio ridere
TTITLE17=E di notte
EXTD=YEAR: 2003
EXTT0=
EXTT1=
EXTT2=
EXTT3=
EXTT4=
EXTT5=
EXTT6=
EXTT7=
EXTT8=
EXTT9=
EXTT10=
EXTT11=
EXTT12=
EXTT13=
EXTT14=
EXTT15=
EXTT16=
EXTT17=
PLAYORDER=
